<?xml version="1.0" encoding="UTF-8"?><svg id="Layer_1" xmlns="http://www.w3.org/2000/svg" width="510" height="629" viewBox="0 0 510 629"><defs><style>.cls-1{fill:#f5623c;}.cls-2{fill:#f9e2ff;}.cls-3{fill:#f68d2e;}.cls-4{fill:#eb1000;}.cls-5{fill:#fff;}.cls-6{fill:#fff4bc;}.cls-7{fill:#4c50cc;}</style></defs><polyline id="Rectangle_335392" class="cls-2" points="510 0 510 629 0 629 0 0"/><path id="Path_1013934" class="cls-1" d="M435.786,227.622H68.451c-9.66,0-17.491,7.832-17.492,17.492v165.908c-.001,9.659,7.829,17.491,17.488,17.492h122.526l72.17,70.842c2.298,2.256,5.989,2.221,8.245-.077,1.069-1.089,1.669-2.555,1.669-4.081v-66.682h162.729c9.658,.003,17.49-7.823,17.493-17.481V245.114c.001-9.659-7.829-17.491-17.488-17.492-.002,0-.003,0-.005,0Z"/><path class="cls-6" d="M383.854,8.09c-2.709,.042-2.709-4.057-.017-4.026,2.708-.041,2.71,4.057,.017,4.026Zm2.108,613.077c2.689,.036,2.688-4.061,0-4.026-2.713-.037-2.714,4.064,0,4.026Zm.332-177.207c-2.701-.034-2.716,4.072-.017,4.04,2.715,.042,2.703-4.064,.017-4.04Zm-1.045,21.672c-2.703-.035-2.715,4.072-.017,4.04,2.714,.042,2.704-4.065,.017-4.04Zm-.868,136.448c2.687,.029,2.689-4.084,0-4.055-2.713-.031-2.712,4.086,0,4.055Zm-3.879-548.776c2.715,.042,2.703-4.064,.017-4.04-2.701-.034-2.716,4.072-.017,4.04Zm.003,505.256c2.687,.029,2.689-4.084,0-4.055-2.713-.031-2.712,4.086,0,4.055Zm-.18-351.533c2.698,.032,2.686-4.076-.017-4.04-2.687-.025-2.697,4.083,.017,4.04Zm5.683-179.303c-2.693-.024-2.69,4.091,.017,4.055,2.692,.024,2.692-4.09-.017-4.055Zm-2.228,66.393c-2.706-.03-2.719,4.078,0,4.04,2.695,.036,2.682-4.069,0-4.04Zm1.46,394.602c-2.706-.03-2.72,4.078,0,4.04,2.695,.036,2.681-4.068,0-4.04Zm-1.477-419.747c-2.708-.035-2.708,4.08-.017,4.055,2.707,.035,2.71-4.08,.017-4.055Zm1.31,112.95c-2.713-.037-2.713,4.064,0,4.026,2.689,.036,2.688-4.061,0-4.026Zm-2.988-39.529c2.689,.036,2.688-4.061,0-4.026-2.712-.037-2.713,4.064,0,4.026Zm-.319,83.89c2.715,.042,2.703-4.064,.017-4.04-2.701-.034-2.716,4.072-.017,4.04Zm-.884,176.639c2.689,.036,2.688-4.061,0-4.026-2.712-.037-2.713,4.064,0,4.026Zm-.068-241.309c2.687,.029,2.689-4.084,0-4.055-2.713-.031-2.712,4.086,0,4.055Zm-6.06,250.235c-.24-2.481-4.23-1.922-3.906,.454,.047,2.674,4.54,2.112,3.906-.454Zm-2.129-265.855c-2.622-.029-2.622,3.965,0,3.936,2.604,.031,2.604-3.967,0-3.936Zm-.132,89.697c-2.629-.037-2.615,3.949,0,3.919,2.598,.031,2.612-3.958,0-3.919Zm-1.485,47.054c2.598,.031,2.612-3.958,0-3.919-2.629-.037-2.615,3.949,0,3.919Zm-2.475-115.814c-2.621-.036-2.623,3.941,0,3.904,2.606,.038,2.604-3.943,0-3.904Zm3.234,30.117c2.606,.035,2.579-3.947,0-3.936-2.595-.01-2.624,3.969,0,3.936Zm.966,12.909c-2.628-.036-2.617,3.948,0,3.919,2.599,.031,2.61-3.957,0-3.919Zm.489-124.431c2.606,.038,2.604-3.943,0-3.904-2.621-.036-2.623,3.941,0,3.904Zm.228-45.507c-2.628-.036-2.617,3.948,0,3.919,2.599,.031,2.61-3.957,0-3.919Zm.252,62.669c-2.622-.029-2.622,3.965,0,3.936,2.604,.031,2.604-3.967,0-3.936Zm-1.273-41.31c2.604,.031,2.604-3.967,0-3.935-2.622-.029-2.622,3.965,0,3.935Zm-3.984,399.21c2.611,.038,2.599-3.952,0-3.921-2.616-.029-2.628,3.957,0,3.921Zm1.462-73.888c-2.621-.036-2.623,3.941,0,3.904,2.606,.038,2.604-3.943,0-3.904Zm16.596,141.842c-2.706-.03-2.72,4.078,0,4.04,2.695,.036,2.681-4.068,0-4.04Zm-14.695-7.034c-2.615-.029-2.629,3.955,0,3.919,2.612,.038,2.598-3.951,0-3.919Zm-2.573,45.282c2.605,.03,2.604-3.965,0-3.934-2.621-.029-2.622,3.963,0,3.934Zm16.128-302.042c-2.706-.03-2.72,4.078,0,4.04,2.695,.036,2.681-4.068,0-4.04Zm-15.896,212.664c2.612,.038,2.598-3.95,0-3.919-2.615-.029-2.629,3.955,0,3.919Zm3.096,23.46c-2.622-.029-2.622,3.965,0,3.936,2.604,.031,2.604-3.967,0-3.936Zm2.059-196.184c2.605,.03,2.604-3.965,0-3.934-2.621-.029-2.623,3.963,0,3.934Zm22.715-94.167c-2.772-.033-2.774,4.18,0,4.147,2.774,.033,2.772-4.18,0-4.147Zm-4.06-18.755c.036,2.815,4.797,2.247,4.152-.454-.244-2.612-4.484-2.067-4.152,.454Zm1.488,41.507c-2.773-.034-2.773,4.18,0,4.145,2.773,.034,2.773-4.179,0-4.145Zm2.233,71.936c2.774,.033,2.772-4.18,0-4.147-2.772-.033-2.774,4.18,0,4.147Zm-.471-225.037c-2.772-.033-2.774,4.18,0,4.147,2.774,.033,2.773-4.18,0-4.147Zm-.666,201.289c2.773,.034,2.773-4.179,0-4.145-2.773-.034-2.773,4.18,0,4.145Zm-1.448,132.991c2.775,.038,2.746-4.16,0-4.145-2.746-.015-2.775,4.184,0,4.145Zm-.292-46.454c2.773,.034,2.773-4.179,0-4.145-2.773-.034-2.773,4.18,0,4.145Zm-.848-195.199c2.774,.033,2.772-4.18,0-4.147-2.772-.033-2.774,4.18,0,4.147Zm3.392-64.536c2.773,.034,2.773-4.179,0-4.145-2.773-.034-2.773,4.18,0,4.145Zm-3.07,439.171c2.773,.034,2.773-4.179,0-4.145-2.773-.034-2.773,4.18,0,4.145Zm13.343,52.444c2.832,.032,2.845-4.293,0-4.253-2.865-.038-2.851,4.284,0,4.253Zm3.045-49.434c-2.852-.032-2.868,4.301,0,4.268,2.838,.032,2.839-4.301,0-4.268Zm-.83,71.565c2.843,.029,2.841-4.306-.016-4.267-2.85-.028-2.831,4.303,.016,4.267Zm-13.781-361.073c2.774,.033,2.772-4.18,0-4.147-2.772-.033-2.774,4.18,0,4.147Zm11.315,316.191c.429-2.82-4.561-3-4.268-.151-.338,2.641,4.326,2.829,4.268,.151Zm-9.994-144.572c-2.772-.033-2.774,4.18,0,4.147,2.774,.033,2.772-4.18,0-4.147Zm1.029-88.576c-2.773-.033-2.774,4.18,0,4.147,2.774,.033,2.772-4.18,0-4.147Zm-3.364,129.129c-2.772-.033-2.774,4.18,0,4.147,2.774,.033,2.772-4.18,0-4.147Zm16.231,14.435c-2.857-.035-2.87,4.294,0,4.252,2.845,.04,2.833-4.285,0-4.252Zm-16.256-446.142c2.774,.033,2.772-4.18,0-4.147-2.773-.033-2.774,4.18,0,4.147Zm-12.351,465.62c-2.713-.031-2.712,4.086,0,4.055,2.687,.029,2.688-4.084,0-4.055Zm2.562,71.884c2.689,.036,2.688-4.061,0-4.026-2.713-.037-2.714,4.064,0,4.026Zm13.687-60.186c-2.773-.033-2.774,4.18,0,4.147,2.774,.033,2.772-4.18,0-4.147Zm.498-18.122c-2.773-.034-2.774,4.18,0,4.145,2.773,.034,2.773-4.179,0-4.145Zm-14.038-123.776c-2.72-.038-2.706,4.072,0,4.04,2.681,.029,2.695-4.076,0-4.04Zm.612-22.748c-2.712-.037-2.713,4.064,0,4.026,2.689,.036,2.688-4.061,0-4.026Zm-1.497-108.239c-2.708-.035-2.708,4.08-.017,4.055,2.707,.035,2.71-4.08,.017-4.055Zm.028,180.369c2.698,.032,2.686-4.076-.017-4.04-2.687-.024-2.697,4.083,.017,4.04Zm-1.065-94.945c-2.714-.038-2.713,4.064,0,4.026,2.688,.036,2.689-4.062,0-4.026Zm15.068,255.325c-2.773-.034-2.773,4.18,0,4.145,2.773,.034,2.773-4.179,0-4.145Zm-.962,27.049c2.774,.033,2.772-4.18,0-4.147-2.772-.033-2.774,4.18,0,4.147Zm.177-551.883c-2.773-.034-2.773,4.18,0,4.145,2.773,.034,2.773-4.18,0-4.145Zm-1.812-47.131c-2.773-.034-2.774,4.18,0,4.145,2.773,.034,2.773-4.179,0-4.145Zm3.092,304.867c-2.773-.034-2.774,4.18,0,4.145,2.773,.034,2.773-4.18,0-4.145Zm-2.187-192.756c-.421,2.752,4.444,2.945,4.153,.151,.338-2.572-4.205-2.747-4.153-.151Zm-11.112,164.384c-2.707-.031-2.718,4.079,0,4.04,2.693,.036,2.683-4.069,0-4.04Zm8.105,165.782c2.773,.034,2.773-4.18,0-4.145-2.773-.034-2.773,4.18,0,4.145Zm.137,110.96c2.774,.033,2.772-4.18,0-4.147-2.772-.033-2.774,4.18,0,4.147Zm1.316-177.363c.42-2.754-4.445-2.947-4.153-.151-.338,2.569,4.204,2.745,4.153,.151Zm-2.251-240.864c2.773,.034,2.773-4.179,0-4.145-2.773-.034-2.773,4.18,0,4.145Zm-44.779,395.306c2.459,.034,2.447-3.735,0-3.708-2.465-.025-2.478,3.741,0,3.708Zm-1.169-438.134c2.447,.027,2.46-3.742,0-3.708-2.483-.036-2.47,3.737,0,3.708Zm.291-46.434c2.447,.027,2.459-3.742,0-3.708-2.483-.036-2.47,3.737,0,3.708Zm1.531-42.772c-2.489-.035-2.459,3.734,0,3.708,2.447,.027,2.459-3.742,0-3.708Zm1.464,17.252c-2.483-.036-2.471,3.736,0,3.708,2.447,.026,2.459-3.742,0-3.708Zm.692,156.93c-2.439-.007-2.485,3.755,0,3.723,2.455,.031,2.427-3.73,0-3.723Zm-.541,199.009c-2.476-.036-2.478,3.728,0,3.692,2.454,.034,2.453-3.726,0-3.692Zm-5.057,44.887c2.46,.033,2.446-3.734,0-3.706-2.458-.026-2.49,3.741,0,3.706Zm.148-308.991c2.454,.034,2.453-3.726,0-3.692-2.465-.033-2.484,3.727,0,3.692Zm.325,351.015c2.454,.034,2.453-3.726,0-3.692-2.471-.033-2.473,3.724,0,3.692Zm-.827-307.126c2.454,.034,2.453-3.726,0-3.692-2.471-.033-2.473,3.724,0,3.692Zm2.924,288.543c2.453,.027,2.453-3.75,0-3.723-2.465-.026-2.482,3.751,0,3.723Zm.869-226.767c-2.476-.029-2.476,3.752,0,3.723,2.453,.027,2.453-3.75,0-3.723Zm-2.281,71.52c2.466,.032,2.479-3.738,.016-3.708-2.478-.04-2.467,3.73-.016,3.708Zm5.6,106.105c-.246-2.323-4.003-1.768-3.675,.454,.04,2.516,4.304,1.961,3.675-.454Zm-3.29-152.659c-2.457-.03-2.457,3.732,.016,3.692,2.458,.03,2.456-3.732-.016-3.692Zm.947,312.566c2.454,.034,2.453-3.726,0-3.692-2.482-.035-2.467,3.725,0,3.692Zm55.322-317.064c2.845,.04,2.833-4.285,0-4.252-2.846-.032-2.875,4.293,0,4.252Zm-56.606,273.557c2.454,.034,2.453-3.726,0-3.692-2.471-.032-2.473,3.724,0,3.692Zm.123-27.119c2.453,.034,2.453-3.728,0-3.693-2.472-.033-2.472,3.726,0,3.693Zm-14.209-225.036c2.387,.027,2.387-3.629,0-3.601-2.387-.027-2.387,3.629,0,3.601Zm-.629,42.091c2.387,.027,2.387-3.629,0-3.602-2.387-.027-2.387,3.629,0,3.602Zm15.65,275.444c2.454,.034,2.454-3.728,0-3.693-2.483-.036-2.466,3.727,0,3.693Zm.723-311.713c-2.464-.03-2.45,3.741,.016,3.708,2.451,.023,2.462-3.748-.016-3.708Zm-14.031,99.99c-2.387-.027-2.387,3.63,0,3.602,2.386,.028,2.387-3.629,0-3.602Zm1.067-89.169c2.387,.028,2.387-3.629,0-3.602-2.387-.027-2.387,3.63,0,3.602Zm-3.031,48.292c2.387,.028,2.387-3.629,0-3.601-2.387-.027-2.387,3.63,0,3.601Zm2.674,130.532c2.387,.028,2.387-3.629,0-3.602-2.387-.027-2.386,3.63,0,3.602Zm-1.549-66.486c2.387,.027,2.387-3.629,0-3.601-2.387-.027-2.387,3.629,0,3.601Zm1.839,87.422c2.387,.027,2.387-3.629,0-3.602-2.387-.027-2.387,3.629,0,3.602Zm-1.988-66.922c2.387,.028,2.387-3.629,0-3.601-2.387-.027-2.387,3.63,0,3.601Zm-.115,19.544c.406-2.398-3.839-2.593-3.559-.151-.329,2.216,3.603,2.392,3.559,.151Zm-.755-346.275c2.387,.027,2.387-3.629,0-3.602-2.387-.027-2.387,3.629,0,3.602Zm16.741,517.152c2.447,.026,2.459-3.742,0-3.708-2.472-.033-2.477,3.735,0,3.708Zm-15.828-564.421c-2.387-.027-2.387,3.629,0,3.602,2.387,.027,2.387-3.629,0-3.602Zm23.855,369.887c-2.539-.032-2.538,3.845,0,3.813,2.537,.032,2.539-3.845,0-3.813Zm10.446-402.634c-2.629-.037-2.615,3.949,0,3.919,2.598,.031,2.612-3.958,0-3.919Zm-8.891,379.99c-2.538-.031-2.538,3.846,0,3.814,2.538,.031,2.538-3.846,0-3.814Zm-.66-213.64c2.538,.031,2.538-3.846,0-3.814-2.538-.031-2.538,3.846,0,3.814Zm-1.263-25.469c-2.539-.032-2.538,3.845,0,3.813,2.537,.032,2.539-3.845,0-3.813Zm2.241,49.331c2.538,.032,2.539-3.845,0-3.813-2.539-.032-2.538,3.845,0,3.813Zm.728,17.894c-2.538-.031-2.538,3.846,0,3.814,2.538,.031,2.538-3.846,0-3.814Zm-.659,47.735c2.538,.031,2.538-3.846,0-3.814-2.538-.031-2.538,3.846,0,3.814Zm.205,60.669c-2.539-.032-2.537,3.845,0,3.813,2.538,.032,2.539-3.845,0-3.813Zm.61-42.998c-2.539-.032-2.538,3.845,0,3.813,2.537,.032,2.539-3.845,0-3.813Zm9.156,252.05c.418-2.62-4.19-2.804-3.905-.152-.336,2.412,3.962,2.598,3.905,.152Zm-12.246-228.581c2.538,.031,2.538-3.846,0-3.814-2.538-.031-2.538,3.846,0,3.814Zm10.221-51.258c2.599,.031,2.61-3.957,0-3.919-2.627-.036-2.616,3.948,0,3.919Zm-.193-132.839c2.612,.038,2.598-3.951,0-3.919-2.615-.029-2.629,3.955,0,3.919Zm.875,484.334c2.606,.038,2.604-3.943,0-3.904-2.622-.036-2.623,3.941,0,3.904Zm5.554-183.249c-2.621-.029-2.623,3.963,0,3.934,2.605,.03,2.604-3.965,0-3.934ZM360.811,4.361c-2.538-.031-2.538,3.846,0,3.814,2.538,.031,2.538-3.846,0-3.814Zm13.823,338.494c-2.622-.036-2.623,3.941,0,3.904,2.606,.038,2.604-3.943,0-3.904Zm-1.95,248.118c2.611,.038,2.599-3.952,0-3.921-2.616-.029-2.628,3.957,0,3.921Zm-26.55-240.648c2.454,.034,2.453-3.726,0-3.692-2.476-.036-2.478,3.728,0,3.692Zm15.494-320.847c2.537,.032,2.539-3.845,0-3.813-2.539-.032-2.538,3.845,0,3.813Zm.661,60.364c-2.538-.031-2.538,3.845,0,3.814,2.538,.031,2.538-3.846,0-3.814Zm-3.623,462.392c-2.539-.032-2.538,3.845,0,3.813,2.537,.032,2.539-3.845,0-3.813Zm3.512,70.053c2.538,.031,2.538-3.845,0-3.814-2.538-.031-2.538,3.845,0,3.814Zm-5.136-262.322c2.538,.031,2.538-3.846,0-3.814-2.538-.031-2.538,3.846,0,3.814Zm1.058,241.665c2.538,.032,2.539-3.845,0-3.813-2.539-.032-2.537,3.845,0,3.813Zm.858-22.124c.413-2.537-4.077-2.731-3.79-.151-.334,2.355,3.839,2.531,3.79,.151Zm-10.099-256.872c-2.472-.033-2.473,3.745-.016,3.723,2.472,.033,2.473-3.745,.016-3.723Zm-1.47-106.694c2.447,.026,2.459-3.742,0-3.708-2.483-.036-2.47,3.736,0,3.708Zm1.509-62.212c2.447,.027,2.459-3.742,0-3.708-2.472-.033-2.477,3.736,0,3.708Zm-.583-71.432c-2.476-.029-2.476,3.751,0,3.723,2.453,.026,2.453-3.749,0-3.723Zm8.609,428.77c2.537,.032,2.539-3.845,0-3.813-2.539-.032-2.537,3.845,0,3.813Zm4.658-21.717c-2.538-.031-2.538,3.846,0,3.814,2.538,.031,2.538-3.846,0-3.814Zm-3.229-40.503c2.538,.031,2.538-3.846,0-3.814-2.538-.031-2.538,3.846,0,3.814Zm2.95,80.789c-2.538-.031-2.538,3.846,0,3.814,2.538,.031,2.538-3.846,0-3.814Zm-.028-394.279c-2.538-.031-2.538,3.845,0,3.814,2.538,.031,2.538-3.845,0-3.814Zm-4.482,116.92c2.537,.032,2.539-3.845,0-3.813-2.539-.032-2.538,3.845,0,3.813Zm-.027,214.031c2.538,.032,2.539-3.845,0-3.813-2.539-.032-2.538,3.845,0,3.813Zm.829-389.497c2.537,.032,2.539-3.845,0-3.813-2.539-.032-2.537,3.845,0,3.813Zm64.761,401.015c-2.924-.038-2.924,4.396,0,4.358,2.923,.037,2.923-4.396,0-4.358Zm32.629,95.043c-3.159-.042-3.159,4.734,0,4.692,3.158,.042,3.158-4.734,0-4.692Zm2.472,47.95c3.158,.042,3.158-4.734,0-4.692-3.159-.042-3.159,4.734,0,4.692Zm.354-617.027c-3.159-.042-3.159,4.734,0,4.692,3.158,.042,3.158-4.734,0-4.692Zm-.023,547.921c-3.16-.042-3.159,4.733,0,4.691,3.157,.042,3.159-4.733,0-4.691Zm-5.077,50.087c3.157,.042,3.159-4.733,0-4.691-3.16-.042-3.159,4.733,0,4.691Zm.397-576.851c-3.16-.042-3.159,4.733,0,4.691,3.157,.042,3.159-4.733,0-4.691Zm-9.993,233.421c3.088,.044,3.104-4.615,0-4.569-3.074-.044-3.075,4.614,0,4.569Zm4.551-63.825c-.213-2.894-5.031-2.382-4.647,.454,.026,3.087,5.252,2.574,4.647-.454Zm10.414,292.293c-3.159-.042-3.159,4.734,0,4.692,3.158,.042,3.158-4.734,0-4.692Zm.933-89.99c-3.159-.042-3.159,4.734,0,4.692,3.158,.042,3.158-4.734,0-4.692Zm-18.323,148.145c3.093,.044,3.095-4.634,.017-4.601-3.094-.044-3.095,4.634-.017,4.601Zm15.119-36.137c-3.16-.042-3.159,4.733,0,4.691,3.158,.042,3.159-4.733,0-4.691Zm-1.752-63.71c3.158,.042,3.158-4.734,0-4.692-3.159-.042-3.159,4.734,0,4.692Zm4.544-158.258c-3.16-.042-3.159,4.733,0,4.691,3.157,.042,3.159-4.733,0-4.691Zm-13.323-8.136c-3.074-.037-3.074,4.638,0,4.601,3.086,.037,3.104-4.639,0-4.601Zm13.011-187.935c-3.159-.042-3.16,4.734,0,4.692,3.158,.042,3.158-4.734,0-4.692Zm-2.727,371.897c-3.16-.042-3.159,4.733,0,4.691,3.157,.042,3.159-4.733,0-4.691Zm-51.152-255.229c2.845,.04,2.833-4.285,0-4.252-2.857-.035-2.869,4.294,0,4.252Zm40.309-124.683c3.099,.046,3.097-4.616,0-4.569-3.074-.044-3.075,4.614,0,4.569Zm-.514-22.557c-3.085-.04-3.071,4.63,.017,4.586,3.072,.033,3.083-4.637-.017-4.586Zm1.515,85.021c-3.074-.037-3.074,4.638,0,4.601,3.097,.039,3.097-4.64,0-4.601Zm-.883-39.949c3.098,.047,3.098-4.618,0-4.571-3.075-.045-3.075,4.616,0,4.571Zm1.327,131.777c-3.085-.04-3.071,4.63,.017,4.586,3.078,.032,3.071-4.634-.017-4.586Zm-.151-25.739c-3.078-.04-3.078,4.62,.017,4.57,3.085,.039,3.065-4.618-.017-4.57Zm-6.263-41.134c.55,2.632,5.019,1.927,4.617-.733-.104-3.279-5.544-2.376-4.617,.733Zm3.66-40.535c3.105,.046,3.091-4.624,0-4.584-3.067-.037-3.081,4.628,0,4.584Zm.494-90.429c3.079,.04,3.076-4.621-.017-4.569-3.078-.04-3.078,4.62,.017,4.569Zm2.73,328.22c-3.094-.051-3.096,4.611-.017,4.571,3.094,.051,3.095-4.612,.017-4.571Zm-3.619,88.942c3.098,.039,3.098-4.64,0-4.601-3.074-.037-3.074,4.638,0,4.601Zm-.502,68.005c3.1,.05,3.088-4.618,.017-4.584-3.087-.044-3.103,4.624-.017,4.584Zm0-178.124c3.094,.051,3.094-4.61,.017-4.569-3.094-.051-3.097,4.61-.017,4.569Zm-.013-40.442c3.099,.046,3.098-4.616,0-4.569-3.074-.044-3.075,4.614,0,4.569Zm1.08,168.264c-3.067-.037-3.082,4.628,0,4.584,3.105,.046,3.091-4.624,0-4.584Zm2.224-145.064c3.098,.039,3.098-4.64,0-4.601-3.074-.037-3.074,4.638,0,4.601Zm1.422,80.372c-.208-2.862-5.031-2.382-4.647,.454,.025,3.069,5.255,2.56,4.647-.454Zm-.729-21.291c-3.072-.033-3.084,4.635,.017,4.584,3.085,.04,3.069-4.628-.017-4.584Zm-1.99,46.175c-3.067-.037-3.082,4.628,0,4.584,3.105,.046,3.091-4.624,0-4.584Zm8.898,102.25c3.158,.042,3.158-4.734,0-4.692-3.159-.042-3.159,4.734,0,4.692Zm11.819-322.206c3.219,.041,3.23-4.846,0-4.797-3.249-.047-3.239,4.837,0,4.797Zm2.279-18.969c3.353,.034,3.146-5.117-.24-4.803-3.045,.228-2.877,4.852,.24,4.803Zm-2.458,85.786c3.224,.041,3.224-4.854,0-4.813-3.244-.039-3.243,4.853,0,4.813Zm3.624-128.71c3.224,.041,3.225-4.854,0-4.813-3.243-.039-3.243,4.853,0,4.813Zm.271-21.558c3.226,.048,3.224-4.831,0-4.782-3.243-.047-3.245,4.829,0,4.782Zm.255,106.244c3.224,.041,3.224-4.854,0-4.813-3.244-.039-3.243,4.853,0,4.813Zm-1.888,284.221c3.226,.048,3.224-4.831,0-4.782-3.243-.047-3.245,4.829,0,4.782Zm-1.66,90.313c3.232,.048,3.218-4.839,0-4.797-3.237-.04-3.251,4.844,0,4.797Zm1.472-132.855c.422-3.185-5.13-3.351-4.878-.151-.291,2.987,4.93,3.161,4.878,.151Zm1.416,16.422c-3.238-.039-3.25,4.845,0,4.799,3.231,.048,3.219-4.839,0-4.799Zm-3.218-174.728c-3.238-.039-3.25,4.846,0,4.799,3.231,.048,3.219-4.839,0-4.799Zm4.58-150.511c-3.244-.047-3.245,4.829,0,4.782,3.226,.048,3.224-4.831,0-4.782Zm-3.396,417.084c-3.238-.039-3.25,4.845,0,4.799,3.23,.048,3.218-4.839,0-4.799Zm-.876-170.654c3.229,.051,3.211-4.829,0-4.799-3.229-.029-3.248,4.848,0,4.799Zm4.748-70.07c-3.243-.047-3.245,4.829,0,4.782,3.225,.048,3.224-4.831,0-4.782Zm-2.574-44.602c-3.249-.047-3.238,4.837,0,4.797,3.219,.041,3.23-4.846,0-4.797Zm.324,132.377c3.226,.048,3.224-4.831,0-4.782-3.243-.047-3.245,4.829,0,4.782Zm1.072-70.505c-3.245-.047-3.244,4.829,0,4.782,3.224,.049,3.226-4.831,0-4.782Zm.678-303.571c-3.245-.047-3.243,4.829,0,4.782,3.224,.049,3.226-4.831,0-4.782Zm-12.104,100.355c-3.16-.042-3.159,4.733,0,4.691,3.157,.042,3.159-4.733,0-4.691Zm.477,17.977c-3.159-.042-3.16,4.734,0,4.692,3.158,.042,3.158-4.734,0-4.692Zm-1.169,24.438c-3.16-.042-3.159,4.733,0,4.691,3.157,.042,3.159-4.733,0-4.691Zm.678-66.656c-3.159-.042-3.159,4.734,0,4.692,3.158,.042,3.158-4.734,0-4.692Zm-1.706-21.512c-3.16-.042-3.159,4.733,0,4.691,3.158,.042,3.159-4.733,0-4.691Zm-1.926-65.902c-3.159-.042-3.159,4.734,0,4.692,3.158,.042,3.158-4.734,0-4.692Zm-.783,182.023c3.158,.042,3.158-4.734,0-4.692-3.159-.042-3.159,4.734,0,4.692Zm3.063-159.463c-3.16-.042-3.159,4.733,0,4.691,3.158,.042,3.159-4.733,0-4.691Zm14.175,183.525c-3.25-.047-3.239,4.837,0,4.797,3.219,.041,3.23-4.846,0-4.797Zm-3.003,310.487c-3.244-.047-3.245,4.829,0,4.782,3.226,.048,3.224-4.831,0-4.782Zm2.837-109.721c-3.238-.039-3.25,4.845,0,4.799,3.23,.048,3.219-4.839,0-4.799Zm.682-69.935c-3.243-.047-3.245,4.829,0,4.782,3.225,.048,3.224-4.831,0-4.782Zm-1.113,155.316c-3.244-.038-3.244,4.853,0,4.813,3.224,.041,3.224-4.854,0-4.813Zm.157-439.976c-3.251-.046-3.237,4.837,0,4.797,3.217,.042,3.232-4.845,0-4.797Zm-1.163-63.327c-3.25-.047-3.239,4.837,0,4.797,3.219,.041,3.23-4.846,0-4.797Zm-3.749-21.961c-3.245-.047-3.243,4.83,0,4.782,3.224,.049,3.226-4.831,0-4.782Zm4.353,69.205c3.219,.041,3.23-4.846,0-4.797-3.249-.047-3.238,4.837,0,4.797Zm-24.63-70.729c-3.098-.039-3.098,4.64,0,4.6,3.073,.037,3.073-4.638,0-4.6Zm-23.68,575.824c2.923,.038,2.924-4.396,0-4.358-2.924-.038-2.924,4.397,0,4.358Zm.731,20.217c2.924,.037,2.923-4.396,0-4.358-2.924-.038-2.924,4.395,0,4.358Zm-.123-41.302c2.923,.037,2.923-4.396,0-4.358-2.924-.038-2.924,4.395,0,4.358Zm.331-422.234c-2.924-.038-2.924,4.397,0,4.358,2.923,.038,2.923-4.396,0-4.358Zm-1.554,377.198c2.924,.037,2.923-4.396,0-4.358-2.923-.038-2.924,4.395,0,4.358Zm1.927-137.804c-2.924-.038-2.924,4.396,0,4.358,2.924,.037,2.923-4.396,0-4.358Zm-15.957-337.441c-2.87-.041-2.852,4.276,0,4.237,2.839,.04,2.839-4.277,0-4.237Zm16.096,56.755c-2.924-.038-2.924,4.397,0,4.358,2.923,.038,2.924-4.396,0-4.358Zm-3.853,395.686c.428-2.891-4.681-3.084-4.383-.151-.344,2.709,4.439,2.884,4.383,.151Zm-81.992-147.067c-2.387-.027-2.387,3.629,0,3.602,2.387,.027,2.387-3.629,0-3.602Zm84.617,186.194c-2.924-.038-2.924,4.397,0,4.358,2.924,.038,2.924-4.396,0-4.358Zm-1.892-456.622c-2.924-.038-2.924,4.396,0,4.358,2.924,.037,2.923-4.396,0-4.358Zm-.279-20.459c2.923,.038,2.923-4.396,0-4.358-2.924-.038-2.924,4.397,0,4.358Zm2.086,58.702c-2.924-.038-2.924,4.395,0,4.358,2.924,.037,2.923-4.396,0-4.358Zm-4.158,291.439c2.925,.043,2.896-4.377,0-4.358-2.896-.019-2.925,4.401,0,4.358Zm4.18-397.908c-2.924-.038-2.924,4.397,0,4.358,2.923,.038,2.923-4.396,0-4.358Zm-3.106,23.3c2.924,.037,2.923-4.396,0-4.358-2.923-.038-2.924,4.396,0,4.358Zm-.553,284.926c2.923,.038,2.924-4.396,0-4.358-2.924-.038-2.924,4.397,0,4.358Zm.231-64.403c2.924,.037,2.923-4.396,0-4.358-2.923-.038-2.924,4.395,0,4.358Zm.248-20.024c2.924,.038,2.924-4.396,0-4.358-2.924-.038-2.924,4.397,0,4.358Zm-9.223-143.169c2.845,.04,2.833-4.285,0-4.252-2.857-.035-2.869,4.294,0,4.252Zm.985,344.423c-2.853-.039-2.866,4.288-.016,4.252,2.864,.046,2.853-4.281,.016-4.252Zm.447-148.578c-2.852-.031-2.865,4.29,0,4.252,2.845,.04,2.832-4.285,0-4.252Zm-5.21,235.953c-2.852-.039-2.87,4.279,0,4.237,2.839,.04,2.839-4.277,0-4.237Zm4.212-55.592c2.857,.038,2.859-4.297,.016-4.268-2.859-.039-2.859,4.296-.016,4.268Zm.444-402.793c-2.869-.034-2.851,4.299,0,4.268,2.838,.032,2.839-4.301,0-4.268Zm-5.074,71.227c2.839,.04,2.839-4.277,0-4.237-2.852-.039-2.87,4.278,0,4.237Zm.734,366.11c-2.857-.035-2.869,4.294,0,4.252,2.845,.04,2.833-4.285,0-4.252Zm1.51-504.246c-2.858-.031-2.858,4.298,0,4.267,2.839,.033,2.839-4.299,0-4.267Zm-2.506,178.93c2.833,.033,2.845-4.292,0-4.252-2.865-.038-2.852,4.283,0,4.252Zm.948-148.455c2.832,.032,2.845-4.293,0-4.253-2.865-.038-2.851,4.284,0,4.253Zm1.026,128.776c2.838,.032,2.839-4.301,0-4.268-2.852-.032-2.868,4.301,0,4.268Zm1.917,68.766c2.845,.04,2.833-4.285,0-4.252-2.846-.032-2.875,4.293,0,4.252Zm-.683,42.359c2.845,.04,2.833-4.285,0-4.252-2.852-.031-2.865,4.29,0,4.252Zm-.133,60.094c-2.852-.031-2.865,4.29,0,4.252,2.845,.04,2.833-4.285,0-4.252Zm.658,44.888c-2.859-.031-2.857,4.298,0,4.268,2.838,.032,2.839-4.301,0-4.268Zm-2.969-15.749c2.839,.033,2.839-4.3,0-4.267-2.858-.031-2.858,4.298,0,4.267Zm3.293,63.477c2.849,.036,2.835-4.291-.016-4.252-2.844-.028-2.838,4.295,.016,4.252Zm-2.483-26.883c-2.858-.031-2.858,4.298,0,4.267,2.839,.033,2.839-4.299,0-4.267Zm26.042,20.169c-3.009-.045-3.008,4.493,0,4.448,2.99,.047,2.991-4.496,0-4.448Zm-3.198-329.744c-3.014-.044-3.002,4.503,0,4.465,2.984,.039,2.996-4.511,0-4.465Zm.841,153.471c-3.002-.038-3.014,4.509,0,4.465,2.996,.046,2.984-4.504,0-4.465Zm-.824,160.12c2.99,.047,2.991-4.497,0-4.45-3.008-.045-3.009,4.495,0,4.45Zm.493-264.531c-3.014-.045-3.002,4.502,0,4.465,2.983,.039,2.996-4.511,0-4.465Zm3.36,85.008c-3.002-.038-3.014,4.509,0,4.465,2.996,.046,2.984-4.504,0-4.465Zm-.689,63.549c-3.008-.037-3.008,4.517,0,4.479,2.99,.039,2.99-4.519,0-4.479Zm-1.49,207.207c2.99,.047,2.99-4.497,0-4.45-3.009-.045-3.009,4.495,0,4.45Zm1.9,43.788c2.99,.047,2.991-4.497,0-4.45-3.008-.045-3.008,4.495,0,4.45Zm.121-72.078c-3.008-.037-3.008,4.517,0,4.479,2.99,.039,2.99-4.519,0-4.479Zm-3.665-199.413c-3.008-.045-3.008,4.495,0,4.45,2.99,.047,2.99-4.497,0-4.45Zm17.723,229.172c-3.081-.044-3.068,4.624,0,4.586,3.091,.04,3.104-4.633,0-4.586Zm-4.054,73.963c3.08,.044,3.066-4.622,0-4.584-3.092-.039-3.106,4.63,0,4.584Zm.452,21.651c3.073,.045,3.073-4.616,0-4.571-3.099-.047-3.099,4.618,0,4.571Zm.947,22.822c3.079,.04,3.076-4.621-.017-4.57-3.078-.04-3.078,4.62,.017,4.57Zm-12.881-169.315c2.996,.046,2.984-4.504,0-4.465-3.002-.038-3.014,4.509,0,4.465Zm-1.363-109.884c-3.015-.045-3.001,4.501,0,4.463,2.983,.04,2.997-4.51,0-4.463Zm2.84,18.699c-3.015-.044-3.002,4.503,0,4.465,2.984,.039,2.996-4.511,0-4.465Zm-2.275,23.991c-3.015-.045-3.001,4.501,0,4.463,2.983,.039,2.997-4.51,0-4.463Zm-1.822,137.477c2.99,.039,2.99-4.519,0-4.479-3.008-.037-3.008,4.517,0,4.479Zm-10.264-146.035c-2.924-.038-2.924,4.397,0,4.358,2.923,.038,2.923-4.396,0-4.358Zm2.05,63.703c-2.924-.038-2.924,4.395,0,4.358,2.924,.037,2.923-4.396,0-4.358Zm.508,23.396c2.923,.038,2.924-4.396,0-4.358-2.924-.038-2.924,4.397,0,4.358Zm13.89-276.708c-3.014-.044-3.002,4.502,0,4.465,2.984,.039,2.996-4.511,0-4.465Zm1.788,24.111c-.004-2.918-4.929-2.564-4.532,.303,.013,2.908,4.934,2.576,4.532-.303Zm-15.91,11.984c2.924,.037,2.923-4.396,0-4.358-2.924-.038-2.924,4.395,0,4.358Zm-.11,67.667c2.923,.038,2.924-4.396,0-4.358-2.924-.038-2.924,4.397,0,4.358Zm.14,61.411c-2.924-.038-2.924,4.395,0,4.358,2.924,.037,2.923-4.396,0-4.358Zm-.84-174.731c-2.923-.038-2.924,4.395,0,4.358,2.924,.037,2.924-4.396,0-4.358Zm8.644-97.46c2.99,.039,2.99-4.519,0-4.479-3.008-.037-3.008,4.517,0,4.479Zm4.966,483.393c-3.009-.046-3.008,4.493,0,4.448,2.99,.047,2.991-4.496,0-4.448Zm-2.068-503.965c2.99,.047,2.99-4.497,0-4.45-3.008-.045-3.008,4.495,0,4.45Zm1.354-42.186c2.984,.039,2.996-4.511,0-4.465-3.014-.044-3.002,4.502,0,4.465Zm-.09,23.887c2.99,.047,2.991-4.496,0-4.448-3.009-.045-3.008,4.493,0,4.448Zm.111,127.229c-3.015-.045-3.001,4.501,0,4.463,2.983,.039,2.997-4.51,0-4.463Zm-.043,436.403c-3.008-.037-3.008,4.517,0,4.479,2.99,.039,2.99-4.519,0-4.479Zm-14.054-295.422c2.924,.037,2.923-4.396,0-4.358-2.923-.038-2.924,4.395,0,4.358Zm11.316,319.425c2.984,.039,2.996-4.511,0-4.465-3.014-.044-3.002,4.502,0,4.465Zm-.072-42.518c2.984,.039,2.996-4.511,0-4.465-3.014-.045-3.002,4.502,0,4.465Zm-13.641-386.37c-.653,2.841,4.354,3.408,4.383,.454,.336-2.66-4.146-3.205-4.383-.454Zm-173.54,100.688c-.048-1.798-2.986-1.397-2.637,.303,.041,1.788,3.025,1.405,2.637-.303Zm-1.39,83.732c-1.765-.019-1.764,2.744,0,2.724,1.77,.024,1.77-2.747,0-2.724Zm20.757,112.516c1.916,.023,1.916-2.961,0-2.937-1.921-.028-1.921,2.964,0,2.937Zm-36.273-51.681c1.686,.022,1.672-2.633,0-2.619-1.703-.016-1.7,2.64,0,2.619Zm9.715,32.301c1.77,.024,1.771-2.747,0-2.724-1.765-.019-1.764,2.744,0,2.724ZM482.461,71.936c-3.311-.047-3.309,4.95,0,4.903,3.309,.046,3.31-4.95,0-4.903Zm.145,289.234c3.309,.046,3.309-4.949,0-4.902-3.31-.047-3.31,4.949,0,4.902Zm-3.263-263.901c3.309,.046,3.31-4.949,0-4.902-3.31-.047-3.31,4.949,0,4.902ZM226.309,476.613c-1.697-.016-1.71,2.643,0,2.619,1.686,.022,1.672-2.633,0-2.619Zm24.957-21.169c-1.824-.013-1.857,2.86,0,2.83,1.837,.026,1.825-2.849,0-2.83Zm14.144,11.72c-1.922-.028-1.92,2.963,0,2.935,1.895,.02,1.918-2.964,0-2.935Zm.164-266.992c-1.907-.029-1.923,2.956-.016,2.935,1.915,.027,1.938-2.96,.016-2.935Zm-2.868-194.664c-1.91-.025-1.927,2.963,0,2.936,1.916,.023,1.916-2.961,0-2.936Zm-13.677,298.467c1.837,.026,1.825-2.849,0-2.83-1.844-.017-1.857,2.854,0,2.83Zm-9.815,182.561c-1.764-.02-1.765,2.743,0,2.724,1.776,.022,1.76-2.745,0-2.724Zm12.596-8.25c-1.845-.023-1.837,2.85,0,2.83,1.837,.02,1.844-2.853,0-2.83ZM479.634,163.507c3.309,.046,3.31-4.95,0-4.904-3.31-.047-3.309,4.95,0,4.904ZM236.761,445.031c1.77,.023,1.77-2.748,0-2.724-1.764-.02-1.765,2.743,0,2.724Zm14.789-231.234c-1.851-.025-1.851,2.84,0,2.815,1.831,.021,1.85-2.845,0-2.815Zm3.072,173.545c.337-1.909-2.979-2.1-2.735-.151-.315,1.707,2.767,1.883,2.735,.151Zm-5.175-17.026c1.83,.013,1.85-2.867,0-2.845-1.85-.017-1.85,2.862,0,2.845ZM503.166,48.679c-3.466-.05-3.453,5.173,0,5.13,3.472,.042,3.485-5.178,0-5.13Zm.428,94.731c3.478,.041,3.478-5.186,0-5.144-3.459-.043-3.459,5.188,0,5.144Zm1.879-54.81c-3.46-.051-3.46,5.166,0,5.115,3.479,.049,3.479-5.164,0-5.115Zm-.06,88.056c-3.453-.044-3.466,5.18,0,5.13,3.485,.049,3.472-5.172,0-5.13Zm-2.073-170.468c-3.453-.044-3.466,5.18,0,5.13,3.485,.049,3.472-5.172,0-5.13Zm-.311,25.618c3.472,.041,3.486-5.18,0-5.131-3.466-.05-3.452,5.174,0,5.131Zm1.85,167.913c-3.453-.044-3.466,5.18,0,5.13,3.485,.049,3.472-5.172,0-5.13Zm1.89-128.498c-3.466-.05-3.452,5.174,0,5.131,3.471,.041,3.485-5.18,0-5.131Zm-.058,85.088c-3.459-.043-3.458,5.189,0,5.146,3.478,.041,3.479-5.188,0-5.146Zm-11.986,387.262c-3.394-.043-3.394,5.068,0,5.023,3.394,.044,3.394-5.067,0-5.023Zm.06-113.77c-3.393-.044-3.395,5.068,0,5.025,3.394,.043,3.393-5.069,0-5.025Zm.096-307.657c-3.393-.044-3.395,5.068,0,5.025,3.395,.043,3.393-5.069,0-5.025Zm-.787,487.278c3.395,.043,3.393-5.069,0-5.025-3.393-.044-3.395,5.068,0,5.025Zm-2.912-546.007c3.394,.044,3.394-5.067,0-5.023-3.394-.043-3.394,5.068,0,5.023Zm-1.9,19.674c3.395,.043,3.393-5.069,0-5.025-3.393-.044-3.395,5.068,0,5.025Zm-.275,334.313c3.392,.047,3.386-5.057,0-5.023-3.386-.033-3.392,5.07,0,5.023Zm1.71-400.432c-.409,3.229,5.14,3.568,5.142,.303,.409-3.228-5.14-3.567-5.142-.303Zm2.911,18.319c-3.393-.044-3.395,5.068,0,5.025,3.395,.043,3.393-5.069,0-5.025Zm-.294,554.504c3.394,.044,3.394-5.067,0-5.023-3.394-.043-3.394,5.068,0,5.023Zm9.677-319.919c-3.453-.044-3.466,5.18,0,5.13,3.479,.049,3.484-5.174,0-5.13Zm3.779,82.667c-3.459-.043-3.459,5.188,0,5.144,3.479,.041,3.479-5.186,0-5.144Zm-.921,242.815c-3.466-.05-3.453,5.174,0,5.131,3.471,.041,3.485-5.18,0-5.131Zm-.952,27.839c3.478,.042,3.479-5.186,0-5.144-3.459-.043-3.459,5.188,0,5.144Zm-1.984-335.702c-3.453-.044-3.466,5.18,0,5.13,3.479,.049,3.484-5.175,0-5.13Zm1.172,290.46c3.478,.042,3.478-5.186,0-5.144-3.459-.043-3.459,5.188,0,5.144Zm3.018-352.522c-3.453-.044-3.466,5.18,0,5.13,3.485,.049,3.472-5.172,0-5.13Zm-6.34,112.838c3.497,.052,3.466-5.172,0-5.13-3.453-.044-3.466,5.18,0,5.13Zm1.939,36.103c-3.453-.044-3.466,5.18,0,5.13,3.485,.049,3.473-5.172,0-5.13Zm-23.648-189.502c3.309,.046,3.309-4.949,0-4.902-3.309-.047-3.31,4.949,0,4.902Zm26.641,374.322c3.472,.041,3.486-5.18,0-5.131-3.466-.05-3.453,5.174,0,5.131Zm-1.601-74.019c-3.453-.044-3.466,5.18,0,5.13,3.485,.049,3.472-5.172,0-5.13Zm.731,23.414c-3.453-.044-3.466,5.18,0,5.13,3.485,.049,3.472-5.172,0-5.13Zm-1.517-46.525c-3.453-.044-3.466,5.18,0,5.13,3.485,.049,3.472-5.172,0-5.13Zm-.513-62.234c-3.46-.051-3.46,5.166,0,5.115,3.473,.05,3.491-5.167,0-5.115Zm-.851,27.342c3.479,.049,3.479-5.164,0-5.115-3.46-.051-3.46,5.166,0,5.115Zm-.254,22.76c3.485,.049,3.473-5.172,0-5.13-3.453-.044-3.466,5.18,0,5.13Zm1.143-197.211c3.485,.049,3.472-5.172,0-5.13-3.453-.044-3.466,5.18,0,5.13Zm.139,283.57c3.485,.049,3.472-5.172,0-5.13-3.453-.044-3.466,5.18,0,5.13Zm-24.33,63.411c3.309,.046,3.31-4.95,0-4.903-3.31-.047-3.309,4.95,0,4.903Zm3.447,20.824c3.309,.046,3.31-4.949,0-4.902-3.31-.047-3.31,4.949,0,4.902Zm-.306-39.092c3.309,.046,3.309-4.949,0-4.902-3.31-.047-3.31,4.949,0,4.902Zm-3.277-47.297c3.309,.046,3.31-4.949,0-4.902-3.31-.047-3.31,4.949,0,4.902Zm-.98-22.772c3.309,.046,3.31-4.95,0-4.903-3.31-.047-3.309,4.95,0,4.903Zm16.103,54.429c3.395,.043,3.393-5.069,0-5.025-3.393-.044-3.395,5.068,0,5.025ZM482.784,2.661c-3.31-.047-3.31,4.949,0,4.902,3.31,.046,3.31-4.949,0-4.902Zm-1.991,30.207c3.309,.046,3.31-4.95,0-4.903-3.31-.047-3.309,4.95,0,4.903Zm2.138,368.394c-3.31-.047-3.31,4.949,0,4.902,3.309,.046,3.309-4.949,0-4.902Zm-.01,86.45c-3.31-.047-3.31,4.949,0,4.902,3.309,.046,3.31-4.949,0-4.902Zm-.77-20.461c3.309,.046,3.31-4.95,0-4.904-3.31-.047-3.309,4.95,0,4.904Zm-2.12-237.002c3.31,.046,3.31-4.949,0-4.902-3.31-.047-3.31,4.949,0,4.902Zm1.221,41.579c3.31,.046,3.31-4.949,0-4.902-3.309-.047-3.309,4.949,0,4.902Zm-.817,19.737c3.309,.046,3.31-4.95,0-4.903-3.31-.047-3.309,4.95,0,4.903Zm-1.612-82.432c3.309,.046,3.31-4.95,0-4.904-3.31-.047-3.309,4.95,0,4.904Zm-.754,129.063c3.309,.046,3.31-4.95,0-4.904-3.31-.047-3.309,4.95,0,4.904Zm1.541,102.555c-3.31-.047-3.31,4.949,0,4.902,3.309,.046,3.309-4.949,0-4.902Zm-1.147-60.62c3.309,.046,3.31-4.95,0-4.904-3.31-.047-3.309,4.95,0,4.904Zm.729-328.348c3.31,.046,3.31-4.949,0-4.902-3.309-.047-3.31,4.949,0,4.902Zm-.329,501.687c-3.31-.047-3.309,4.95,0,4.904,3.309,.046,3.31-4.95,0-4.904Zm15.393-341.062c-3.393-.044-3.395,5.068,0,5.025,3.395,.043,3.393-5.069,0-5.025Zm-4.584,138.999c3.395,.043,3.393-5.069,0-5.025-3.393-.044-3.395,5.068,0,5.025Zm1.883-206.477c-3.394-.043-3.394,5.068,0,5.023,3.394,.044,3.394-5.067,0-5.023Zm-.299,48.486c.024,3.367,5.741,2.846,5.125-.454-.211-3.162-5.51-2.667-5.125,.454Zm-13.917-53.268c3.309,.046,3.309-4.949,0-4.902-3.309-.047-3.309,4.949,0,4.902Zm12.302-37.383c-3.394-.043-3.394,5.068,0,5.023,3.394,.044,3.394-5.067,0-5.023Zm2.358,373.625c-3.393-.044-3.395,5.068,0,5.025,3.395,.043,3.393-5.069,0-5.025Zm-2.237,48.952c3.394,.043,3.393-5.069,0-5.025-3.393-.044-3.395,5.068,0,5.025Zm.913-70.453c-3.394-.043-3.394,5.068,0,5.023,3.394,.044,3.394-5.067,0-5.023Zm3.081,44.792c3.394,.044,3.394-5.067,0-5.023-3.394-.043-3.394,5.068,0,5.023Zm-3.502-105.894c3.394,.043,3.393-5.069,0-5.025-3.393-.044-3.395,5.068,0,5.025Zm.349-221.439c3.395,.043,3.393-5.069,0-5.025-3.393-.044-3.395,5.068,0,5.025Zm-13.366,252.706c3.309,.046,3.31-4.95,0-4.903-3.31-.047-3.309,4.95,0,4.903Zm13.351-117.781c3.395,.043,3.393-5.069,0-5.025-3.393-.044-3.395,5.068,0,5.025Zm3.406-73.393c-3.394-.043-3.394,5.068,0,5.023,3.394,.044,3.394-5.067,0-5.023Zm-16.68,17.447c3.309,.046,3.31-4.95,0-4.903-3.31-.047-3.309,4.95,0,4.903Zm14.396,23.855c-3.394-.044-3.394,5.068,0,5.023,3.394,.044,3.394-5.067,0-5.023Zm1.711-19.637c-3.393-.044-3.395,5.068,0,5.025,3.395,.043,3.393-5.069,0-5.025Zm-3.327,73.997c3.394,.044,3.394-5.067,0-5.023-3.394-.043-3.394,5.068,0,5.023Zm.927,42.169c3.394,.044,3.394-5.067,0-5.023-3.394-.043-3.394,5.068,0,5.023Zm-227.783-149.749c-1.927-.027-1.91,2.961,0,2.936,1.916,.023,1.916-2.961,0-2.936Zm50.351,92.629c-2.237-.03-2.237,3.39,0,3.359,2.217,.032,2.217-3.391,0-3.359Zm.408,107.749c-2.231-.028-2.224,3.401,0,3.374,2.243,.036,2.211-3.393,0-3.374Zm-2.32,113.328c2.217,.026,2.237-3.395,0-3.359-2.237-.03-2.237,3.39,0,3.359Zm2.007-49.253c-2.237-.03-2.237,3.39,0,3.359,2.217,.032,2.217-3.391,0-3.359Zm-1.886-455.928c.025,2.195,3.766,1.831,3.345-.303-.033-2.205-3.716-1.823-3.345,.303Zm-1.283-25.029c-2.237-.03-2.237,3.39,0,3.359,2.237,.036,2.217-3.386,0-3.359Zm-1.464,398.667c2.223,.032,2.211-3.399,0-3.374-2.212-.019-2.243,3.409,0,3.374Zm-.187-42.18c2.217,.032,2.217-3.391,0-3.359-2.237-.03-2.237,3.39,0,3.359Zm-.062-113.432c2.216,.019,2.237-3.418,0-3.39-2.237-.023-2.236,3.413,0,3.39Zm-.062-195.301c2.223,.031,2.211-3.399,0-3.374-2.23-.023-2.243,3.404,0,3.374Zm1.218,460.541c2.223,.033,2.211-3.399,0-3.374-2.231-.023-2.243,3.405,0,3.374Zm.267-375.544c2.217,.026,2.237-3.395,0-3.359-2.237-.03-2.237,3.39,0,3.359Zm-.748,22.281c2.216,.019,2.237-3.418,0-3.39-2.237-.023-2.235,3.413,0,3.39Zm-.372,64.468c2.223,.026,2.231-3.402,0-3.374-2.23-.023-2.243,3.404,0,3.374Zm.447,243.491c2.216,.025,2.217-3.415,0-3.39-2.237-.023-2.236,3.413,0,3.39Zm1.792-348.255c2.21,.025,2.224-3.407,0-3.375-2.243-.03-2.23,3.399,0,3.375Zm-1.31,149.039c2.243,.035,2.211-3.393,0-3.374-2.23-.023-2.243,3.404,0,3.374Zm-48.741,175.135c1.896,.019,1.917-2.966,0-2.936-1.921-.028-1.921,2.964,0,2.936Zm51.628-61.147c2.21,.025,2.224-3.407,0-3.375-2.244-.03-2.23,3.399,0,3.375Zm-12.524,46.334c-2.151-.025-2.152,3.295,0,3.269,2.152,.026,2.151-3.294,0-3.269Zm-1.438,49.504c-2.151-.025-2.152,3.295,0,3.269,2.146,.027,2.162-3.298,0-3.269Zm-1.329-21.953c2.151,.025,2.152-3.295,0-3.269-2.152-.026-2.151,3.294,0,3.269Zm.645,44.246c2.145,.026,2.164-3.298,0-3.269-2.152-.026-2.151,3.294,0,3.269Zm.034-129.048c2.151,.025,2.152-3.295,0-3.269-2.152-.026-2.151,3.294,0,3.269Zm1.469,42.341c2.153,.029,2.127-3.276,0-3.269-2.128-.007-2.153,3.298,0,3.269Zm12.446-345.857c-2.244-.03-2.23,3.399,0,3.375,2.21,.025,2.224-3.407,0-3.375Zm-10.815,164.191c-2.152-.026-2.151,3.294,0,3.269,2.144,.026,2.164-3.298,0-3.269Zm-3.197,112.197c2.152,.026,2.151-3.294,0-3.269-2.151-.025-2.152,3.295,0,3.269Zm3.263-132.285c-2.151-.025-2.152,3.295,0,3.269,2.146,.027,2.163-3.297,0-3.269Zm-1.063,85.889c-2.151-.025-2.152,3.295,0,3.269,2.152,.026,2.151-3.294,0-3.269Zm11.811,301.951c2.236,.028,2.217-3.409,0-3.39-2.237-.023-2.235,3.413,0,3.39Zm-15.288-517.66c-2.151-.025-2.152,3.295,0,3.269,2.146,.027,2.163-3.297,0-3.269Zm17.186,471.521c-2.244-.03-2.23,3.399,0,3.375,2.21,.019,2.244-3.411,0-3.375Zm-12.678-387.978c-2.151-.025-2.152,3.295,0,3.269,2.152,.026,2.151-3.294,0-3.269Zm7.773,412.631c2.237,.036,2.217-3.386,0-3.359-2.237-.03-2.237,3.39,0,3.359Zm-10.656-384.926c2.165,.032,2.121-3.277,0-3.269-2.127-.007-2.153,3.298,0,3.269Zm-1.081,90.236c2.162,.028,2.146-3.296,0-3.269-2.152-.026-2.151,3.294,0,3.269Zm.174-136.343c2.162,.028,2.146-3.296,0-3.269-2.152-.026-2.151,3.294,0,3.269Zm.842-17.347c2.164,.029,2.144-3.295,0-3.269-2.151-.025-2.152,3.295,0,3.269Zm23.658,282.248c2.31,.034,2.271-3.5,0-3.495-2.294-.007-2.335,3.531,0,3.495Zm.73-310.253c-2.326-.025-2.326,3.535,0,3.51,2.302,.023,2.302-3.533,0-3.51Zm.222,88c.05,2.396,4.058,1.833,3.444-.454-.249-2.191-3.76-1.655-3.444,.454Zm.511-19.499c.406-2.332-3.722-2.541-3.444-.151-.335,2.132,3.491,2.322,3.444,.151Zm.998-17.96c2.301,.023,2.302-3.533,0-3.51-2.326-.025-2.326,3.535,0,3.51Zm-2.412,214.573c2.308,.03,2.296-3.518,0-3.495-2.32-.025-2.333,3.527,0,3.495Zm1.104,64.943c-2.319-.024-2.333,3.529,0,3.497,2.309,.03,2.295-3.519,0-3.497Zm-2.791-43.57c2.309,.03,2.295-3.519,0-3.497-2.319-.024-2.333,3.529,0,3.497Zm2.498,62.802c-2.326-.025-2.326,3.535,0,3.51,2.302,.023,2.302-3.533,0-3.51Zm-1.185,72.308c.404-2.346-3.726-2.527-3.444-.151-.335,2.132,3.491,2.322,3.444,.151Zm16.376-14.232c-2.387-.027-2.387,3.63,0,3.602,2.386,.028,2.387-3.629,0-3.602Zm-4.898,26.593c2.387,.027,2.387-3.629,0-3.602-2.387-.027-2.387,3.629,0,3.602Zm-.038-531.452c-2.387-.027-2.387,3.629,0,3.602,2.387,.027,2.387-3.629,0-3.602Zm3.976,619.389c2.387,.027,2.387-3.629,0-3.602-2.387-.027-2.387,3.629,0,3.602Zm-24.699-529.967c-2.243-.03-2.23,3.397,0,3.374,2.21,.025,2.223-3.406,0-3.374Zm22.891,464.708c2.387,.028,2.387-3.629,0-3.602-2.387-.027-2.387,3.63,0,3.602Zm1.642,20.505c2.387,.027,2.387-3.629,0-3.602-2.387-.027-2.387,3.629,0,3.602Zm-.64,21.279c2.387,.028,2.387-3.629,0-3.602-2.387-.027-2.387,3.63,0,3.602Zm-11.437,9.766c2.302,.03,2.302-3.511,0-3.48-2.326-.032-2.326,3.513,0,3.48Zm.52-66.268c-2.32-.025-2.332,3.527,0,3.495,2.308,.03,2.296-3.518,0-3.495Zm-2.24,21.887c2.309,.03,2.295-3.519,0-3.497-2.319-.024-2.333,3.529,0,3.497Zm-.278-66.437c2.302,.023,2.302-3.533,0-3.51-2.326-.025-2.326,3.535,0,3.51Zm3-201.566c-2.325-.024-2.326,3.536,0,3.511,2.302,.023,2.301-3.533,0-3.511Zm-5.774-172.472c2.302,.023,2.301-3.533,0-3.511-2.325-.024-2.326,3.536,0,3.511Zm6.249,128.88c-2.332-.032-2.32,3.52,0,3.495,2.295,.023,2.308-3.525,0-3.495Zm-13.221-52.864c-2.237-.023-2.235,3.413,0,3.39,2.216,.025,2.217-3.415,0-3.39Zm-.084-24.782c-2.224-.026-2.231,3.402,0,3.374,2.23,.028,2.223-3.4,0-3.374Zm.865,113.74c.353-2.264-3.586-2.451-3.328-.151-.327,2.062,3.369,2.237,3.328,.151Zm10.279,296.622c2.301,.023,2.301-3.533,0-3.51-2.326-.025-2.326,3.535,0,3.51Zm1.568-353.326c-2.332-.032-2.32,3.52,0,3.495,2.296,.023,2.308-3.525,0-3.495Zm-2.754,45.035c-2.332-.032-2.32,3.52,0,3.495,2.295,.023,2.308-3.525,0-3.495Zm2.108,45.596c-2.326-.025-2.326,3.535,0,3.51,2.302,.023,2.302-3.533,0-3.51Zm-.009,152.451c-2.319-.024-2.333,3.529,0,3.497,2.309,.03,2.295-3.519,0-3.497Zm-4.859-441.571c-2.325-.024-2.326,3.536,0,3.511,2.302,.023,2.301-3.533,0-3.511Zm1.91,42.726c-2.326-.032-2.326,3.513,0,3.48,2.302,.03,2.302-3.511,0-3.48Zm-1.037-20.173c-2.32-.025-2.332,3.527,0,3.495,2.308,.03,2.296-3.518,0-3.495Zm4.488-40.82c-2.333-.032-2.32,3.52,0,3.495,2.295,.023,2.308-3.525,0-3.495Zm.57,197.764c-2.325-.024-2.326,3.536,0,3.511,2.302,.023,2.301-3.533,0-3.511Zm-14.57,233.204c2.223,.032,2.21-3.399,0-3.374-2.23-.023-2.243,3.404,0,3.374ZM277.777,18.05c-2.001-.021-2.001,3.079,0,3.058,2.001,.021,2.001-3.079,0-3.058Zm-2.033,222.882c2.012,.024,1.995-3.08,0-3.058-2.001-.021-2.001,3.079,0,3.058Zm-.669,236.812c2.001,.022,2-3.077,0-3.056-2-.021-2.002,3.078,0,3.056Zm-2.911-217.242c2.002,.022,2-3.077,0-3.056-2-.021-2.001,3.078,0,3.056Zm1.59-68.988c2.004,.024,1.977-3.06,0-3.058-1.977-.002-2.003,3.082,0,3.058Zm1.148,241.128c-2-.021-2.002,3.078,0,3.056,2.013,.025,1.994-3.078,0-3.056Zm-.776,23.138c2.012,.024,1.995-3.08,0-3.058-2.001-.021-2.001,3.079,0,3.058Zm-1.632-83.812c2.001,.021,2.001-3.079,0-3.058-2.001-.021-2.001,3.079,0,3.058Zm.196-22.648c2.001,.022,2-3.077,0-3.056-2-.021-2.002,3.078,0,3.056Zm4.361,38.123c-2-.021-2.002,3.078,0,3.056,1.995,.023,2.011-3.08,0-3.056Zm.487-177.381c-2-.021-2.002,3.078,0,3.056,2.012,.025,1.994-3.078,0-3.056Zm1.153,202.935c-.253-1.899-3.269-1.355-2.967,.454,.073,2.11,3.551,1.529,2.967-.454Zm-2.538-132.891c-2.001-.021-2.001,3.079,0,3.058,2.001,.021,2.001-3.079,0-3.058Zm.385-110.739c-2-.021-2.002,3.078,0,3.056,2.001,.022,2-3.077,0-3.056Zm-.123-20.391c-2.001-.021-2.001,3.079,0,3.058,2.001,.021,2.001-3.079,0-3.058Zm23.314-45.318c-2.152-.026-2.151,3.294,0,3.269,2.145,.026,2.164-3.298,0-3.269Zm-35.399,167.093c-1.91-.025-1.927,2.963,0,2.936,1.916,.023,1.916-2.961,0-2.936Zm-1.986,154.067c1.916,.03,1.897-2.955,0-2.935-1.927-.027-1.909,2.96,0,2.935Zm1.713-23.203c-1.91-.025-1.927,2.963,0,2.937,1.896,.019,1.917-2.966,0-2.937Zm-2.192-44c1.917,.029,1.896-2.957,0-2.936-1.927-.027-1.91,2.961,0,2.936Zm13.58,163.875c2.002,.022,2-3.077,0-3.056-2-.021-2.001,3.078,0,3.056Zm-12.707-138.232c1.916,.03,1.897-2.955,0-2.935-1.928-.027-1.909,2.96,0,2.935Zm15.147-61.627c-2.001-.021-2.001,3.079,0,3.058,2.001,.021,2.001-3.079,0-3.058Zm-.062,178.868c-2.001-.021-2.001,3.079,0,3.058,2.001,.021,2.001-3.079,0-3.058Zm-14.302-166.269c1.915,.024,1.917-2.959,0-2.935-1.917-.024-1.916,2.959,0,2.935Zm-.504-43.487c1.915,.024,1.917-2.959,0-2.935-1.911-.025-1.926,2.962,0,2.935Zm23.257-126.386c2.066,.028,2.067-3.176,0-3.148-2.08-.027-2.095,3.178,0,3.148Zm-1.235,197.383c2.067,.028,2.066-3.175,0-3.148-2.089-.029-2.091,3.178,0,3.148Zm3.312-158.544c-2.091-.022-2.084,3.19,0,3.163,2.072,.028,2.061-3.183,0-3.163Zm-1.504,177.902c2.072,.028,2.061-3.184,0-3.163-2.084-.023-2.095,3.193,0,3.163Zm1.09-134.249c2.065,.021,2.067-3.198,0-3.177-2.09-.023-2.089,3.2,0,3.177Zm.606,260.294c-2.097-.022-2.078,3.197,0,3.177,2.065,.021,2.067-3.198,0-3.177Zm7.315-247.82c2.164,.029,2.144-3.295,0-3.269-2.151-.025-2.152,3.295,0,3.269Zm.917-196.267c2.151,.025,2.152-3.295,0-3.269-2.152-.026-2.151,3.294,0,3.269Zm.044-25.289c2.152,.026,2.151-3.294,0-3.269-2.151-.025-2.152,3.295,0,3.269Zm2.309-19.233c-2.152-.026-2.151,3.294,0,3.269,2.151,.025,2.152-3.295,0-3.269Zm-1.731,570.494c-2.152-.026-2.151,3.294,0,3.269,2.151,.025,2.152-3.295,0-3.269Zm3.268-23.727c2.152,.026,2.151-3.294,0-3.269-2.151-.025-2.152,3.295,0,3.269Zm-4.58-174.009c2.152,.026,2.151-3.294,0-3.269-2.151-.025-2.152,3.295,0,3.269Zm1.531,127.04c-2.151-.025-2.152,3.295,0,3.269,2.164,.029,2.144-3.295,0-3.269ZM286.307,6.374c-2.09-.029-2.091,3.178,0,3.148,2.067,.028,2.066-3.175,0-3.148Zm-2.191,330.961c2.072,.028,2.061-3.183,0-3.163-2.091-.022-2.084,3.19,0,3.163Zm.581,151.34c2.067,.028,2.066-3.175,0-3.148-2.096-.029-2.08,3.175,0,3.148Zm-.346-197.072c2.072,.028,2.061-3.184,0-3.163-2.073-.02-2.102,3.192,0,3.163Zm1.454-239.432c2.067,.028,2.066-3.175,0-3.148-2.079-.026-2.097,3.177,0,3.148Zm4.489,371.333c-2.08-.019-2.09,3.189,0,3.163,2.072,.028,2.061-3.184,0-3.163Zm-3.074-398.202c-2.091-.03-2.089,3.179,0,3.148,2.066,.028,2.068-3.176,0-3.148Zm2.151,243.176c-2.079-.026-2.097,3.177,0,3.148,2.067,.028,2.066-3.175,0-3.148Zm.273,132.169c-2.089-.029-2.091,3.178,0,3.148,2.067,.028,2.066-3.175,0-3.148Zm-.358-178.174c-2.089-.029-2.091,3.178,0,3.148,2.067,.028,2.066-3.175,0-3.148Zm-16.43,80.936c-2-.021-2.002,3.078,0,3.056,2.001,.022,2-3.077,0-3.056Zm14.338,141.638c-2.078-.018-2.092,3.189,0,3.163,2.073,.027,2.06-3.183,0-3.163Zm-.383,24.988c2.066,.028,2.068-3.176,0-3.148-2.086-.026-2.085,3.175,0,3.148Zm2.019-287.722c-2.078-.018-2.092,3.189,0,3.163,2.073,.027,2.06-3.183,0-3.163Zm-.659-112.225c-2.073-.02-2.102,3.192,0,3.163,2.072,.028,2.061-3.184,0-3.163Z"/><path class="cls-7" d="M338.485,274.624c.829,0,1.5-.672,1.5-1.5V113.384h170.015v-3.006h-170.009V36.549l29.417,29.417c.28,.283,.663,.442,1.061,.441,.399,0,.781-.158,1.062-.441,.584-.586,.584-1.533,0-2.119l-31.978-31.978c-.281-.282-.664-.441-1.062-.441s-.78,.159-1.061,.441l-31.975,31.978c-.584,.586-.584,1.533,0,2.119,.585,.584,1.534,.584,2.119,0l29.417-29.417V110.378h-71.972V62.239c0-7.101-5.757-12.857-12.858-12.858H0V197.038H101.772v49.012c0,1.122,.44,2.199,1.226,3,1.657,1.689,4.371,1.716,6.061,.059l38-37.3v83.469c-.006,2.542,.501,5.06,1.492,7.4,.952,2.257,2.334,4.307,4.069,6.036,1.73,1.734,3.78,3.116,6.036,4.069,2.339,.989,4.854,1.497,7.393,1.493h121.909l71.733,70.409c1.353,1.349,3.184,2.108,5.095,2.113,1.887-.01,3.701-.727,5.084-2.01,1.474-1.379,2.302-3.312,2.285-5.33v-65.183h137.845v-2.999h-140.843v68.185c.022,1.188-.464,2.33-1.336,3.138-.825,.767-1.909,1.195-3.035,1.2-1.125,0-2.202-.449-2.991-1.25l-72.609-71.272h-123.136c-4.243,.013-8.315-1.674-11.306-4.683-3.01-2.992-4.698-7.065-4.686-11.31l-.005-86.416,12.049-11.828h90.056c7.101,0,12.856-5.757,12.856-12.857V113.384h71.972v159.74c0,.828,.671,1.5,1.5,1.5Z"/><path id="Group_319379" class="cls-4" d="M83.457,596.424l-1.649,5.08c-.045,.165-.199,.277-.37,.269h-3.97c-.236,0-.3-.135-.269-.336l6.863-19.783c.231-.671,.344-1.377,.336-2.086-.007-.119,.081-.223,.2-.236h5.484c.168,0,.235,.034,.269,.2l7.772,21.936c.067,.168,.034,.3-.168,.3h-4.475c-.164,.023-.321-.077-.37-.236l-1.749-5.114h-7.906l.002,.006Zm6.662-4.273c-.673-2.254-2.052-6.426-2.725-8.848h-.034c-.538,2.288-1.783,6.056-2.692,8.848h5.451Zm8.545,1.279c0-4.912,3.667-9.017,9.959-9.017,.269,0,.606,.034,1.144,.067v-6.761c-.013-.117,.07-.223,.187-.236,.016-.002,.033-.002,.049,0h4.306c.168,0,.2,.067,.2,.2v20.289c-.008,.832,.037,1.664,.135,2.49,0,.168-.034,.236-.235,.3-2.136,.917-4.438,1.387-6.763,1.379-5.046,.003-8.982-2.89-8.982-8.711Zm11.1-4.878c-.412-.133-.845-.19-1.278-.168-2.521-.189-4.717,1.702-4.906,4.223-.015,.196-.017,.392-.006,.588,0,3.4,1.951,4.878,4.576,4.878,.546,.023,1.091-.045,1.615-.2v-9.321Zm24.394,4.643c0,5.383-3.5,8.949-8.445,8.949-5.854,0-8.478-4.441-8.478-8.848,0-4.882,3.263-8.882,8.545-8.882,5.555,0,8.378,4.138,8.378,8.781Zm-12.078,.034c0,3.028,1.413,4.946,3.7,4.946,1.985,0,3.5-1.716,3.5-4.878,0-2.692-1.11-4.912-3.7-4.912-1.986,0-3.5,1.782-3.5,4.844Zm19.311-15.746c.269,0,.336,.034,.336,.269v7.031c.944-.247,1.917-.372,2.893-.37,4.335-.216,8.024,3.123,8.24,7.458,.012,.239,.013,.478,.003,.718,0,6.426-5.08,9.555-10.295,9.555-1.823,.012-3.637-.249-5.383-.774-.121-.07-.196-.197-.2-.336v-23.315c0-.168,.067-.236,.236-.236h4.17Zm2.355,10.968c-.683-.01-1.363,.08-2.019,.269v9.286c.419,.096,.848,.142,1.278,.135,2.591,0,4.979-1.581,4.979-5.148-.032-3.095-1.849-4.542-4.238-4.542h0Zm15.779,6.056c.168,1.951,1.548,3.566,4.912,3.566,1.44,.029,2.87-.234,4.205-.774,.1-.067,.2-.034,.2,.168v3.263c0,.236-.067,.336-.236,.4-1.649,.736-3.445,1.081-5.249,1.009-6.46,0-8.714-4.441-8.714-8.68,0-4.744,2.927-9.05,8.31-9.05,5.181,0,7.233,4,7.233,7.4,.024,.766-.032,1.533-.168,2.288-.01,.144-.125,.259-.269,.269-1.174,.109-2.354,.154-3.533,.135l-6.691,.006Zm4.475-3.3c.573,.022,1.147,0,1.716-.067v-.236c-.04-1.546-1.325-2.767-2.871-2.727-.019,0-.037,.001-.056,.002-1.729-.026-3.178,1.303-3.3,3.028h4.511Zm-115.613-20.929h16.62v39.071l-16.62-39.071Zm-11.675,0H20.093v39.071l16.62-39.071Zm5.82,13.973l10.6,25.1h-6.933l-3.163-7.974h-7.737l7.233-17.126Z"/><path class="cls-5" d="M241.388,38.613H0V186.27H91.003v49.012c0,1.122,.441,2.2,1.227,3,1.658,1.689,4.371,1.714,6.06,.056l53.045-52.068h90.057c7.1-.001,12.854-5.757,12.853-12.857V51.47c0-7.1-5.756-12.856-12.857-12.857Z"/><path class="cls-3" d="M223.98,85.738c.635,.636,.635,1.664,0,2.3-.304,.306-.717,.478-1.148,.478-.433,.002-.848-.168-1.154-.474v-.004l-9.565-9.564-9.565,9.564c-.304,.306-.716,.478-1.147,.478-.432,0-.846-.171-1.151-.478-.635-.636-.635-1.664,0-2.3l9.565-9.565-9.565-9.565c-.635-.636-.635-1.664,0-2.3,.635-.635,1.665-.635,2.3,0l9.565,9.564,9.565-9.564c.635-.635,1.665-.635,2.3,0,.635,.636,.635,1.664,0,2.3l-9.565,9.565,9.565,9.565Zm-119.928,52.129l-16.311,10.948-5.754-10.769c-.215-.405-.593-.699-1.038-.81-.446-.112-.918-.03-1.3,.226l-16.915,11.355-5.754-10.769c-.216-.406-.595-.7-1.041-.81-.446-.112-.918-.03-1.3,.226l-16.918,11.356-5.751-10.766c-.218-.405-.596-.7-1.042-.813-.446-.111-.918-.028-1.3,.229l-16.915,11.356-5.754-10.77c-.216-.405-.593-.7-1.038-.813-.446-.11-.918-.027-1.3,.229l-4.623,3.103v3.921l4.946-3.319,5.754,10.766c.217,.404,.594,.698,1.038,.812,.446,.109,.918,.027,1.3-.229l16.918-11.355,5.751,10.769c.217,.405,.595,.699,1.041,.812,.446,.108,.917,.026,1.3-.229l16.915-11.356,5.754,10.77c.215,.404,.593,.698,1.038,.809,.445,.112,.918,.031,1.3-.225l16.915-11.356,5.754,10.769c.217,.405,.595,.699,1.041,.81,.446,.114,.919,.031,1.3-.229l17.8-11.95c.743-.501,.941-1.507,.444-2.252-.5-.745-1.51-.944-2.255-.444Zm50.002-29.998l-16.311,10.948-5.751-10.77c-.216-.405-.593-.7-1.038-.813-.446-.109-.918-.027-1.3,.229l-16.917,11.355-5.751-10.769c-.216-.405-.593-.701-1.038-.813-.446-.109-.917-.026-1.3,.229l-16.917,11.356-5.751-10.77c-.216-.405-.593-.7-1.038-.813-.446-.109-.917-.026-1.3,.229l-16.915,11.356-5.754-10.769c-.216-.405-.593-.701-1.038-.813-.446-.11-.918-.027-1.3,.229l-16.918,11.355-5.751-10.769c-.216-.405-.593-.701-1.038-.813-.446-.109-.918-.026-1.3,.229l-16.918,11.356-5.751-10.77c-.216-.405-.593-.7-1.038-.813-.446-.11-.918-.027-1.3,.229l-4.623,3.103v3.919l4.936-3.314,5.754,10.77c.215,.406,.592,.701,1.038,.812,.446,.112,.919,.029,1.3-.229l16.915-11.353,5.751,10.766c.217,.405,.596,.7,1.042,.812s.918,.028,1.3-.229l16.915-11.353,5.751,10.766c.218,.405,.596,.699,1.042,.812s.919,.029,1.3-.229l16.915-11.353,5.751,10.766c.217,.405,.596,.7,1.042,.812,.446,.111,.918,.029,1.3-.226l16.915-11.356,5.751,10.77c.219,.403,.597,.696,1.042,.809,.446,.113,.919,.03,1.3-.229l16.915-11.353,5.754,10.766c.216,.405,.593,.699,1.038,.812,.446,.112,.919,.029,1.3-.229l17.8-11.949s.002-.002,.003-.002c.744-.501,.941-1.509,.44-2.253-.501-.744-1.51-.942-2.255-.441Z"/></svg>